Coordinates
version=1
nRows=26
nColumns=24
inDegrees=yes

Units are S.I. units (second, meters, Newtons, ...)
Angles are in degrees.

endheader
time	pelvis_tilt	pelvis_list	pelvis_rotation	pelvis_tx	pelvis_ty	pelvis_tz	hip_flexion_r	hip_adduction_r	hip_rotation_r	knee_angle_r	ankle_angle_r	subtalar_angle_r	mtp_angle_r	hip_flexion_l	hip_adduction_l	hip_rotation_l	knee_angle_l	ankle_angle_l	subtalar_angle_l	mtp_angle_l	lumbar_extension	lumbar_bending	lumbar_rotation
      0.44200000	     -0.06064634	      5.62228361	     -0.56323148	     -0.87018396	      0.99838071	      0.31086498	     25.12619711	     -4.37024674	     -8.99734772	     -2.20092102	     -0.82769885	     -7.64826502	     -0.33167969	    -11.65784552	      6.93084799	    -11.90889628	     -6.82008675	     11.07679455	     -3.41816744	     -0.21703324	    -12.85216575	     -6.65472430	     -2.20998852
      0.44616667	      0.24012237	      5.52827142	     -0.60768238	     -0.86404791	      0.99807669	      0.31101228	     24.87429729	     -4.23528820	     -8.75732742	     -2.88117433	     -1.01642436	     -7.89296965	     -0.46963735	    -12.13494504	      6.77956691	    -11.88497807	     -7.29592945	     11.18819367	     -3.39232821	     -0.35630428	    -13.17482364	     -6.45478670	     -2.14051138
      0.45033333	      0.46087202	      5.40882164	     -0.60210199	     -0.85782262	      0.99771222	      0.31110606	     24.68008646	     -4.08773934	     -8.55692076	     -3.57293929	     -1.23491769	     -8.20756421	     -0.58101316	    -12.49060332	      6.58304019	    -11.83494018	     -7.86191111	     11.36640207	     -3.33327164	     -0.46584428	    -13.39254488	     -6.20571416	     -2.20725509
      0.45450000	      0.60813772	      5.34562160	     -0.60058015	     -0.85161257	      0.99724164	      0.31115878	     24.58931764	     -4.00240192	     -8.34905332	     -4.33625336	     -1.40104130	     -8.40723159	     -0.61118401	    -12.74544584	      6.45627159	    -11.71950012	     -8.46325054	     11.51186945	     -3.41861088	     -0.49286529	    -13.51838256	     -6.00597608	     -2.22516432
      0.45866667	      0.94963214	      5.16378910	     -0.64353183	     -0.84524970	      0.99716509	      0.31140662	     24.20262528	     -3.76091228	     -8.11098001	     -4.95918006	     -1.78675152	     -8.91288268	     -0.71745018	    -13.21777676	      6.18897766	    -11.77203646	     -9.05991030	     11.56182321	     -3.32573720	     -0.58356280	    -13.85952659	     -5.69548582	     -2.28023600
      0.46283333	      1.10101907	      5.11762806	     -0.62290946	     -0.83904362	      0.99679909	      0.31150189	     24.07647583	     -3.69165557	     -7.90216215	     -5.69849434	     -2.05347384	     -9.23933909	     -0.74362338	    -13.41570786	      6.06206265	    -11.63664820	     -9.77563294	     11.62487949	     -3.40814816	     -0.59755510	    -14.00608142	     -5.52903847	     -2.29484462
      0.46700000	      1.33700549	      4.99387534	     -0.64606520	     -0.83269188	      0.99665458	      0.31174807	     23.79387568	     -3.50908786	     -7.65347619	     -6.31711088	     -2.53123367	     -9.84549896	     -0.78878915	    -13.70950079	      5.84859773	    -11.62308747	    -10.48046899	     11.53942598	     -3.43553145	     -0.60862692	    -14.21786528	     -5.27418927	     -2.35277749
      0.47116667	      1.56035574	      4.87803728	     -0.66632615	     -0.82633551	      0.99653424	      0.31200145	     23.51356055	     -3.33782526	     -7.41935306	     -6.91961451	     -2.99716495	    -10.36651499	     -0.82366741	    -13.94608565	      5.63559493	    -11.61267089	    -11.27225599	     11.47470154	     -3.45572531	     -0.59225786	    -14.43250204	     -5.03737916	     -2.35460468
      0.47533333	      1.76163639	      4.76801596	     -0.69410227	     -0.81997826	      0.99643400	      0.31229314	     23.24222333	     -3.16659847	     -7.17327355	     -7.48468276	     -3.51387457	    -10.90890900	     -0.85294093	    -14.12353918	      5.42474122	    -11.60737100	    -12.13193383	     11.35450856	     -3.51121000	     -0.54901148	    -14.61773685	     -4.80807906	     -2.35134443
      0.47950000	      1.98369380	      4.63985160	     -0.77014697	     -0.81359079	      0.99640412	      0.31271229	     22.93096878	     -2.95359918	     -6.88736512	     -7.99872055	     -4.10739000	    -11.47797696	     -0.88611037	    -14.29010660	      5.19166707	    -11.70085659	    -13.05737260	     11.22568637	     -3.52543131	     -0.43083312	    -14.81771385	     -4.56625172	     -2.32575816
      0.48366667	      2.11861700	      4.58844039	     -0.76537785	     -0.80730633	      0.99631800	      0.31292395	     22.72999711	     -2.86554602	     -6.71123529	     -8.54460210	     -4.68349703	    -11.98036131	     -0.90161126	    -14.30534572	      5.03520345	    -11.59611130	    -14.06649226	     11.03653137	     -3.69390960	     -0.37418027	    -14.94752995	     -4.40276783	     -2.28267157
      0.48783333	      2.26418169	      4.48445844	     -0.79861002	     -0.80092851	      0.99632627	      0.31326146	     22.47525540	     -2.69843215	     -6.48998362	     -9.00220232	     -5.35703056	    -12.61109212	     -0.91854158	    -14.30209568	      4.81657490	    -11.59453805	    -15.13454357	     10.73182915	     -3.86869033	     -0.28748118	    -15.06378363	     -4.17750068	     -2.26716736
      0.49200000	      2.45454790	      4.33674613	     -0.89159222	     -0.79449779	      0.99644087	      0.31383035	     22.14209613	     -2.45036532	     -6.19745289	     -9.39363087	     -6.00214868	    -13.33566631	     -0.93944569	    -14.30826801	      4.53104629	    -11.76418898	    -16.28581017	     10.35806488	     -3.87470205	     -0.06661885	    -15.21756841	     -3.92679491	     -2.19947637
      0.49616667	      2.57873794	      4.26072728	     -0.94812562	     -0.78821380	      0.99650081	      0.31417275	     21.92404076	     -2.32314659	     -6.02694237	     -9.84718674	     -6.71889078	    -13.81967081	     -0.95653471	    -14.18042298	      4.33928867	    -11.76145989	    -17.53010592	     10.03905548	     -4.10761816	      0.05801700	    -15.33085695	     -3.73794434	     -2.09499076
      0.50033333	      2.69816445	      4.14468542	     -1.01629219	     -0.78184935	      0.99663238	      0.31462586	     21.67417075	     -2.13935312	     -5.82906256	    -10.24274810	     -7.37784700	    -14.42923933	     -0.97608478	    -14.00703101	      4.08386644	    -11.84757478	    -18.84228509	      9.56098871	     -4.30643469	      0.21858541	    -15.41815838	     -3.50800731	     -2.00455890
      0.50450000	      2.78090721	      4.00070335	     -1.28015159	     -0.77547201	      0.99661343	      0.31569427	     21.49476050	     -1.82328817	     -5.38898837	    -10.65997476	     -7.99458870	    -15.09797233	     -1.54717332	    -13.75033463	      3.77500124	    -12.29596362	    -20.25982311	      9.06464484	     -4.27353487	      7.79245655	    -15.44946533	     -3.34067052	     -1.67222954
      0.50866667	      2.91024125	      3.87908006	     -1.33568027	     -0.76918762	      0.99687952	      0.31604734	     21.23198565	     -1.66603870	     -5.28791680	    -11.05469080	     -8.58855178	    -15.54237243	     -1.55839181	    -13.48614222	      3.50964334	    -12.31435072	    -21.72907700	      8.46301906	     -4.66049525	      7.81074327	    -15.56699780	     -3.09697559	     -1.57266647
      0.51283333	      3.01686179	      3.73072986	     -1.41279330	     -0.76291046	      0.99713724	      0.31652810	     20.98861659	     -1.46896413	     -5.17436805	    -11.44231860	     -9.13073775	    -15.97589369	     -1.57207347	    -13.14202603	      3.19057684	    -12.42002857	    -23.30393916	      7.85814448	     -4.94148553	      7.85202724	    -15.65219702	     -2.83950667	     -1.44452437
      0.51700000	      3.11455433	      3.56310127	     -1.52421853	     -0.75664633	      0.99740503	      0.31709115	     20.75428266	     -1.24264791	     -5.04457717	    -11.82875152	     -9.61972958	    -16.37800982	     -1.58864075	    -12.73995014	      2.84104607	    -12.58747005	    -24.95873085	      7.21096107	     -5.22177312	      7.91350979	    -15.72543653	     -2.57214640	     -1.27338134
      0.52116667	      3.17708081	      3.39394210	     -1.68896638	     -0.75046025	      0.99759982	      0.31786187	     20.57538966	     -0.98682623	     -4.86038562	    -12.22921809	    -10.15576282	    -16.86349658	     -1.62204765	    -12.24638900	      2.46747111	    -12.83884353	    -26.71730106	      6.58140838	     -5.39881439	      8.05925098	    -15.77343727	     -2.35218576	     -0.99861180
      0.52533333	      3.22635152	      3.19095296	     -1.85498796	     -0.74424534	      0.99781700	      0.31857873	     20.40194377	     -0.71131972	     -4.72173714	    -12.64085145	    -10.51164284	    -17.15943764	     -1.65779171	    -11.69939108	      2.05460399	    -13.08918767	    -28.53181068	      5.87491489	     -5.71731308	      8.21083083	    -15.79147049	     -2.07748234	     -0.71685758
      0.52950000	      3.26412803	      2.96719005	     -2.02694478	     -0.73808238	      0.99802865	      0.31930275	     20.24265596	     -0.41973960	     -4.60593325	    -13.06322735	    -10.79962947	    -17.39709950	     -1.69779235	    -11.09723987	      1.60881652	    -13.33624910	    -30.41586629	      5.16658890	     -6.04927469	      8.37016719	    -15.81283330	     -1.77833672	     -0.42806361
      0.53366667	      3.32864341	      2.71010394	     -2.19279232	     -0.73195251	      0.99830943	      0.32000824	     20.04003514	     -0.10550263	     -4.50894236	    -13.48334828	    -10.89371993	    -17.48132459	     -1.71949360	    -10.49034335	      1.11926744	    -13.56187454	    -32.34796041	      4.42189471	     -6.45878417	      8.45396333	    -15.86676497	     -1.43897443	     -0.20385301
      0.53783333	      3.14574212	      2.50047648	     -2.50037136	     -0.72590458	      0.99807622	      0.32115294	     20.17591880	      0.24225942	     -4.24187574	    -14.00122487	    -11.08640172	    -17.76286590	     -1.84948803	     -9.56524220	      0.64408684	    -13.97414398	    -34.39489692	      3.76734541	     -6.74320610	      8.89406452	    -15.63527712	     -1.20780184	      0.27351179
      0.54200000	      3.18676140	      2.19036392	     -2.62553207	     -0.71984858	      0.99837380	      0.32173869	     19.97330067	      0.57745490	     -4.27681763	    -14.38812656	    -11.18111929	    -17.77509926	     -1.88896698	     -8.85727386	      0.07462762	    -14.13763277	    -36.42786951	      3.04735493	     -7.22460418	      9.00446741	    -15.67824278	     -0.80039975	      0.59577276
      0.54616667	      3.08740396	      1.89991218	     -2.79820852	     -0.71389028	      0.99836984	      0.32254934	     19.95398189	      0.93199596	     -4.22486405	    -14.83782556	    -11.13956126	    -17.85768242	     -1.96425526	     -7.95132643	     -0.50303560	    -14.34754272	    -38.54497303	      2.42025479	     -7.65742117	      9.18530959	    -15.56514032	     -0.44965139	      0.96511024
